<svg xmlns:xlink="http://www.w3.org/1999/xlink" xmlns="http://www.w3.org/2000/svg" width="105" height="105" viewBox="0 0 105 105" class="ourValCircle"><g id="Group_3278" data-name="Group 3278" transform="translate(-4938 -2052)"><circle id="Ellipse_13" data-name="Ellipse 13" cx="52.5" cy="52.5" r="52.5" transform="translate(4938 2052)" fill="#231F20"></circle><g id="_1" data-name="1" transform="translate(4961.022 1988.2)"><g id="Group_3274" data-name="Group 3274" transform="translate(0 97.901)"><path id="Path_2107" data-name="Path 2107" d="M1.131,116.5l4.757,1.876a1.782,1.782,0,0,0,1.8-.294l3.767,2.376.646.454a3.184,3.184,0,0,0,3.043,4.861,3.182,3.182,0,0,0,3.525,2.99,3.183,3.183,0,0,0,3.527,2.989,3.183,3.183,0,0,0,5.606,1.885l.756-.887,1.274.94a3.506,3.506,0,0,0,5.6-2.408,3.482,3.482,0,0,0,4.716-3.21,3.487,3.487,0,0,0,4.159-3.214,3.483,3.483,0,0,0,4.061-4.807l3.4-2.186a1.786,1.786,0,0,0,2.019.511l4.757-1.876a1.787,1.787,0,0,0,1.006-2.316l-2.174-5.511a.874.874,0,0,0-1.627.642l2.174,5.51a.037.037,0,0,1-.021.048l-4.757,1.876a.037.037,0,0,1-.047-.021l-5.978-15.152a.033.033,0,0,1,0-.028.035.035,0,0,1,.02-.019l4.757-1.877a.033.033,0,0,1,.028,0,.034.034,0,0,1,.019.02l2.3,5.842a.874.874,0,0,0,1.627-.642l-2.3-5.842a1.787,1.787,0,0,0-2.315-1.005L46.508,99.9a1.781,1.781,0,0,0-1.071,2.112l-2.55.941a4.964,4.964,0,0,1-2.491.245l-2.578-.409a.874.874,0,0,0-.274,1.727l2.578.409a6.717,6.717,0,0,0,3.37-.332l2.573-.95,4.976,12.613-3.752,2.41-.064-.047h0l-7.231-5.337a.878.878,0,0,0-.688-.155,10.169,10.169,0,0,1-9.254-3.165,1.976,1.976,0,0,0-2.759-.095c-2.316,2.08-5.552,4.108-7.816,1.956a.52.52,0,0,1,.115-.829,51.67,51.67,0,0,0,8.277-6.893,2.659,2.659,0,0,1,2.3-.753l3.319.526a.874.874,0,0,0,.274-1.727l-3.319-.526a4.413,4.413,0,0,0-3.821,1.251c-.278.281-.607.608-.978.966a12.479,12.479,0,0,0-3.473-.7,40.266,40.266,0,0,0-4.564-.181,4.074,4.074,0,0,1-1.822-.305l-1.541-.645A1.787,1.787,0,0,0,13.175,99.9L8.418,98.026A1.787,1.787,0,0,0,6.1,99.032L.125,114.184A1.784,1.784,0,0,0,1.131,116.5ZM15.9,123.537A1.437,1.437,0,0,1,13.7,121.68l2.162-2.538A1.437,1.437,0,1,1,18.057,121h0Zm3.525,2.989a1.437,1.437,0,0,1-2.193-1.857l2.162-2.538a1.442,1.442,0,0,1,2.132-.067l.011.013a1.439,1.439,0,0,1,.049,1.912Zm3.526,2.989a1.437,1.437,0,0,1-2.193-1.857l2.163-2.538a1.437,1.437,0,0,1,2.192,1.859h0Zm5.7.437-.01.014L26.473,132.5a1.437,1.437,0,0,1-2.193-1.857l2.163-2.538a1.436,1.436,0,0,1,2.2,1.843ZM13.619,103.642l1.494.625a5.827,5.827,0,0,0,2.609.437,40.319,40.319,0,0,1,4.354.182,10.733,10.733,0,0,1,2.1.329,44.152,44.152,0,0,1-5.556,4.329,2.268,2.268,0,0,0-.348,3.55c1.46,1.388,4.727,2.983,10.189-1.923a.235.235,0,0,1,.328,0,12.043,12.043,0,0,0,10.447,3.735c.459.323-.43-.329,6.951,5.118h0a1.79,1.79,0,0,1,.392,2.52,1.739,1.739,0,0,1-2.416.331c-1.036-.765-.271-.183-3.913-2.989a.874.874,0,1,0-1.067,1.385l3.022,2.328a1.758,1.758,0,0,1-.158,2.292,1.8,1.8,0,0,1-2.32.133c-.693-.511-.117-.073-3.3-2.52a.874.874,0,0,0-1.067,1.386l2.679,2.063a1.755,1.755,0,0,1-.071,2.222,1.794,1.794,0,0,1-2.4.214c-1.206-.89-.6-.43-2.923-2.228a.874.874,0,1,0-1.07,1.383l1.857,1.438a1.746,1.746,0,0,1-.216,2.134,1.787,1.787,0,0,1-2.351.163l-1.175-.867.27-.317a3.185,3.185,0,0,0-2.776-5.227,3.183,3.183,0,0,0-3.44-3l-.085.008c0-.028,0-.056,0-.084a3.161,3.161,0,0,0-.752-1.807l-.008-.009a3.186,3.186,0,0,0-2.76-1.087,3.185,3.185,0,0,0-5.609-1.886l-1.318,1.546-.77-.541-.036-.024-3.88-2.447,5.09-12.9ZM1.752,114.826,7.729,99.673a.037.037,0,0,1,.034-.023l.013,0,4.757,1.876a.037.037,0,0,1,.021.047L6.576,116.729a.036.036,0,0,1-.047.021l-4.757-1.876a.036.036,0,0,1-.021-.047Z" transform="translate(0 -97.901)" fill="#FFFFFF"></path></g></g></g></svg>